Patient4_TMGait_0pt7_02_right_24_EMG.mot
version=1
nRows=34
nColumns=33
inDegrees=no
endheader
time	1LAddLong	2LGlutMax	3LGlutMed	4LIliopsoas	5LSemiMemb	6LBicFemLong	7LRecFem	8LVastMed	9LVastLat	10LGasMed	11LTibAnt	12lTibPost	13LPeroneusLong	14LSol	15LExtDigLong	16LFlexDigLong	17RAddLong	18RGlutMax	19RGlutMed	20RIliopsoas	21RSemiMemb	22RBicFemLong	23RRecFem	24RVastMed	25RVastLat	26RGasMed	27RTibAnt	28RTibPost	29RPeroneusLong	30RSol	31RExtDigLong	32RFlexDigLong
27.132	-0.033875	-0.47226	0.1181	0.055084	0.042419	-0.050201	0.14771	-0.003662	0.10239	-0.048828	-0.055237	-0.010223	-0.1059	0.30838	1.1458	0.0177	0.048828	-0.49255	-1.3078	0.20355	-0.003662	-0.27176	-0.27176	0.025024	-0.18082	0.23544	-0.14847	0.13901	0.10269	-0.24231	-0.003357	0.00351
27.133	-0.029602	-0.42679	0.13046	0.038452	0.0383	-0.044556	0.13947	-0.010529	0.099792	-0.079346	0.018005	-0.015869	-0.080109	0.29846	0.49622	0.020142	0.091248	-0.70358	-0.93948	0.29663	0.13229	-0.44083	-0.22629	-0.011139	-0.19302	0.14679	0.047455	0.060425	-0.30045	0.92071	-0.003815	0.001831
27.134	-0.020447	-0.38071	0.16602	0.074615	0.04425	-0.004883	0.17395	-0.009308	0.073547	-0.088043	0.19974	-0.018921	-0.13016	0.29694	0.30899	-0.016022	0.12772	-0.81009	-0.68573	0.25711	0.46555	-0.70496	-0.035095	0.055389	-0.17929	0.09964	0.11078	-0.12329	-0.38269	0.52124	-0.002441	-0.005035
27.135	-0.022583	-0.28931	0.1976	0.080261	0.020294	-0.018005	0.25742	-0.005188	0.054474	-0.068665	0.34042	-0.013885	-0.12558	0.16434	-0.074463	-0.014954	0.11093	-0.36972	-0.6424	0.15518	0.31677	-0.62653	0.06546	-0.019226	-0.1384	-0.031128	0.26642	-0.12878	-0.54001	-0.038452	-0.003052	-0.001678
27.136	-0.00824	-0.23544	0.16449	0.070343	0.041199	-0.002441	0.37506	-0.008545	0.045471	-0.057678	0.15671	-0.017548	-0.084229	-0.010071	0.026398	0.003815	0.016479	-0.23086	0.44922	0.039825	0.003662	-0.31509	0.0914	0.019379	-0.14008	-0.17761	0.2977	-0.27039	-0.66773	-0.041809	-0.003357	0.002899
27.137	-0.002594	-0.26184	0.16266	0.034332	0.036621	0.005188	0.51178	-0.003357	0.03479	-0.059204	0.28214	-0.02243	-0.14755	-0.067749	-0.27847	0.004425	-0.083618	-0.28717	1.1263	-0.028229	-0.41626	-0.11581	0.020599	0.16937	-0.16159	-0.2565	0.16937	-0.19608	-0.91354	-0.44754	-0.003662	0.000916
27.138	0.000305	-0.21332	0.15549	0.014038	0.030212	0.035095	0.56595	0.003815	0.035858	-0.022888	0.38849	-0.014496	-0.16312	-0.086975	-0.29739	0.006104	-0.079041	-0.43076	0.62241	0.014343	-0.44006	0.025635	0.16769	0.16693	-0.17044	-0.2742	0.068512	0.001678	-0.52628	-0.50232	-0.004425	0.003052
27.139	0.00061	-0.15839	0.15701	-0.011902	0.006409	0.013123	0.551	0.009155	0.013428	-0.03479	0.24231	-0.007782	-0.087738	0.011902	-0.16754	-0.004425	-0.04715	-0.50201	-0.82871	0.082092	-0.13351	0.21011	0.33722	0.14801	-0.23254	-0.11307	0.069885	0.00885	0.11032	-0.001526	-0.005035	-0.001831
27.14	-0.000916	-0.16602	0.14496	-0.006866	0.024109	0.015869	0.53741	0.014954	0.004883	-0.070496	-0.10757	-0.011749	-0.014038	0.15869	-0.032196	-0.001221	-0.036316	-0.51636	-0.50766	0.047913	-0.041504	0.27969	0.48782	0.032806	-0.25986	-0.023193	0.12665	-0.001526	0.000763	0.14954	-0.004272	-0.006256
27.141	-0.010071	-0.16419	0.089722	-0.023193	0.001526	0.027161	0.44937	0.014496	-0.019989	-0.054321	-0.48935	-0.010529	-0.074768	0.087738	0.34149	0.001373	-0.038452	-0.75409	-1.3449	0.015717	-0.16769	0.25696	0.48981	0.036011	-0.24094	-0.024719	0.15121	0.036011	0.55069	0.098572	-0.003815	-0.007477
27.142	-0.024719	-0.095825	0.067444	0.013885	0.031586	0.029297	0.33814	0.012512	-0.016937	-0.005951	-0.097351	0.000763	-0.13016	-0.068054	-0.59921	0.010223	-0.057068	-0.98023	-1.3048	-0.11093	-0.22568	0.78644	0.34821	0.16205	-0.19165	0.11444	0.14404	-0.15335	0.77621	0.12146	-0.002747	-0.001526
27.143	-0.025482	-0.035553	0.062714	0.010071	0.028534	0.039978	0.17944	0.024109	-0.021973	-0.018311	-0.003357	-0.007019	-0.15595	-0.10834	-0.63202	0.00946	-0.016327	-1.2762	-1.1598	-0.1181	-0.18433	0.79681	0.40588	0.15152	-0.16708	0.094452	0.29236	-0.035095	0.59738	0.44815	-0.004272	0.004883
27.144	-0.022278	0.022736	0.032501	-0.013123	0.036774	0.032349	0.086823	0.016327	-0.028992	0.00351	-0.34256	0.000916	-0.15045	-0.11078	-0.19073	0.010071	0.050964	-1.2689	-1.5343	-0.13275	-0.04303	0.55573	0.45502	0.02655	-0.17914	0.088806	0.65475	0.026093	0.14481	0.77164	-0.002747	-0.004883
27.145	-0.013733	0.097198	-0.000458	-0.017395	0.043335	0.02655	0.070648	0.02243	-0.027618	-0.024414	-0.38696	0.002441	-0.092316	0.029144	-0.086975	0.005493	0.074005	-1.1649	-1.9902	-0.11581	-0.014038	0.49744	0.42435	0.001526	-0.13886	0.13794	0.90332	0.11047	-0.22079	0.38635	-0.001678	-0.011902
27.146	-0.010681	0.1561	0.011139	-0.017548	0.017548	0.024872	0.14252	0.02182	-0.012665	-0.016479	-0.11902	0.001984	-0.083008	0.13214	0.11734	0.007782	-0.014801	-1.0928	-2.402	-0.08316	0.17014	0.61066	0.48599	0.11978	-0.060577	0.15045	1.0555	0.046082	-0.37872	-0.068359	-0.003967	-0.020905
27.147	-0.006714	0.1915	0.048523	-0.023651	0.013733	0.01297	0.31082	0.010986	-0.009918	-0.030212	0.073547	-0.001526	-0.12283	0.077515	0.67017	0.024872	-0.079803	-1.2848	-1.655	-0.028839	-0.17838	0.52216	0.53894	0.087585	-0.075684	0.13596	1.0062	-0.027161	-0.35141	-0.14175	-0.002747	-0.021362
27.148	-0.000916	0.21729	0.043182	-0.038605	0.019836	0.005341	0.39383	0.007477	-0.019379	-0.030212	-0.009766	0.004425	-0.10132	0.067749	0.44937	0.016174	-0.066071	-1.2701	-1.133	0.016174	-0.090027	0.24857	0.55008	0.12894	-0.076294	0.10025	0.29037	-0.031586	-0.013275	-0.25894	-0.010071	-0.023804
27.149	-0.001526	0.30273	0.005798	-0.063934	0.034485	0.009613	0.35172	0.005951	-0.019379	-0.014038	-0.059357	-0.005035	-0.17014	0.036774	-0.24948	0.010376	-0.058136	-1.1371	-0.67215	0.041809	0.16541	0.27817	0.58166	0.1239	-0.057068	0.11002	-1.2077	-0.03067	0.4718	-0.42404	-0.007782	-0.018768
27.15	0.005188	0.38925	-0.000305	-0.030212	0.024872	-0.030518	0.42328	0.003967	-0.001068	-0.020905	0.15091	0.006256	-0.16159	0.038452	-0.401	0.002899	-0.041504	-1.2636	-0.57159	-0.04425	0.19608	0.13306	0.58319	0.1503	-0.032196	0.026398	-1.756	-0.039215	0.61844	-0.65247	-0.00351	-0.025482
27.151	0.010834	0.48828	-0.003204	-0.017853	0.020905	-0.025635	0.64438	0.00473	0.014954	-0.036926	0.30914	0.009918	-0.078888	0.11749	-0.29984	0.000305	-0.026093	-1.3802	-0.75302	-0.087585	0.064545	0.032654	0.50293	0.056915	-0.046844	-0.20432	-1.5215	-0.018768	0.49683	-0.78964	-0.002899	-0.020599
27.152	-0.000916	0.56595	-0.023041	0.001373	0.022888	-0.019531	0.91095	0.006561	0.036163	-0.04425	0.090027	0.003815	-0.025024	0.095215	-0.095215	-0.00351	-0.030823	-1.3922	-1.3426	-0.060425	0.12802	-0.041809	0.44052	0.042419	-0.017548	-0.32333	-1.1642	-0.014648	0.36835	-0.72372	-0.001678	-0.021667
27.153	0.006104	0.62088	-0.032196	0.001221	0.033417	-0.04776	0.86517	0.012512	0.032043	-0.013733	-0.14664	0.002594	-0.091248	0.014191	0.091858	0.005035	-0.01358	-1.3083	-1.0194	-0.023651	0.18433	-0.020294	0.42511	0.02594	0.028992	-0.4274	-1.019	-0.036469	0.29678	-0.60242	-0.001068	-0.016937
27.154	0.007935	0.69382	0.056458	-0.032959	0.040283	-0.039215	0.72891	0.010681	0.028839	-0.007629	-0.4567	0.004425	-0.1709	-0.078278	0.22186	0.019226	0.034943	-1.543	-0.96207	-0.035706	0.084381	0.12253	0.4541	0.087891	0.054779	-0.47012	-0.46326	-0.076904	0.24078	-0.55176	-0.001831	-0.011902
27.155	-0.001221	0.82611	0.082092	-0.015869	0.035095	-0.031281	0.59036	0.024414	0.028381	-0.006104	-0.13199	-0.000305	-0.20493	-0.041809	0.17166	0.021515	0.059357	-1.5602	-0.36057	-0.043182	0.16586	-0.075989	0.3923	-0.007324	0.034637	-0.37552	0.009003	-0.021057	0.233	-0.010681	-0.002136	-0.012512
27.156	-0.00824	0.94254	0.059967	0.080566	0.027618	-0.050354	0.30014	0.019226	0.009308	0.018005	-0.035858	0.001526	-0.19379	-0.012512	0.23727	0.012512	0.075226	-1.5756	-0.12558	0.001831	-0.043945	-0.54916	0.37033	0.016022	-0.048218	-0.004425	0.58609	0.046082	0.15991	0.57266	0.005188	-0.008087
27.157	-0.021362	1.011	0.005341	0.15533	0.032501	-0.033722	0.103	0.009155	0.023193	0.033112	0.22232	0.007935	-0.18158	0.023651	0.19959	0.004883	0.10254	-1.4871	-0.34317	0.1088	-0.21668	-0.88684	0.47485	0.00412	-0.16113	0.25299	0.7727	-0.011749	-0.031586	0.56351	-0.003967	0
27.158	-0.022888	1.1366	-0.001678	0.094604	0.027924	-0.031128	0.033112	0.005188	0.008698	0.044556	0.083923	-0.002136	-0.17212	0.10071	0.87692	0.006409	0.054016	-1.4848	-0.34714	0.22247	-0.002899	-0.6488	0.54184	-0.019531	-0.24307	0.24323	0.58868	-0.12451	-0.087585	1.2128	-0.003357	-0.007935
27.159	-0.024567	1.1996	0.000458	0.026093	0.022888	-0.026703	-0.036926	0.011139	-0.006409	0.024719	0.10681	-0.003662	-0.18112	0.17838	0.57297	0.005035	-0.064545	-1.4645	-0.31525	0.17746	-0.099487	-0.10605	0.44754	-0.070038	-0.31952	0.29663	0.46295	-0.34744	-0.13962	2.0299	-0.005951	-0.00885
27.16	-0.023956	1.2553	-0.020294	0.058289	0.024567	0.008545	-0.017395	0.016022	-0.022583	-0.062714	-0.10941	0.005341	0.075836	0.23346	0.17868	0.019989	-0.16007	-1.5121	-0.69336	-0.097351	-0.38986	0.38422	0.16892	-0.032349	-0.33661	0.38345	0.34027	0.14557	-0.04303	1.5239	-0.003815	-0.00412
27.161	-0.015411	1.3744	-0.038147	0.040283	0.017242	-0.01358	0.08606	-0.031128	-0.040741	-0.073547	-0.11917	0.008392	0.10025	0.27725	0.051575	0.020447	-0.15808	-1.5466	-1.2802	-0.26382	0.091095	0.4509	-0.051727	0.011292	-0.29999	0.27664	-0.14236	0.13092	0.026093	0.65994	-0.00824	-0.000153
27.162	-0.00885	1.436	-0.0177	-0.052795	0.026093	-0.033264	0.077515	-0.004272	-0.039978	-0.018158	-0.008545	0.002594	-0.027466	0.20905	-0.38177	0.012817	-0.11337	-1.3084	-1.1533	-0.20721	0.54764	0.15335	-0.29907	0.15411	0.037842	0.18387	0.029449	0.077057	-0.16892	-0.088348	-0.002441	-0.016327
27.163	-0.014038	1.436	-0.005951	-0.053101	0.026093	-0.031586	-0.15381	0.019073	-0.057068	0.031281	-0.045624	-0.001526	-0.079193	0.11398	-0.64148	0.008392	-0.085297	-1.096	-0.69244	-0.036163	0.19241	-0.17349	-0.25497	0.22324	0.18784	0.11398	0.15472	0.041504	-0.39887	-0.47104	-0.001068	-0.016937
27.164	-0.02182	1.4519	-0.022583	-0.001678	0.023193	-0.031128	-0.46524	0.018463	-0.052338	0.045929	-0.071411	-0.003662	-0.06073	0.034485	-0.78873	0.009003	-0.050964	-0.79102	-0.34714	0.26352	0.35217	-0.2066	-0.030823	0.20783	0.13428	0.064087	0.53787	0.010376	-0.33325	-0.3952	-0.001221	-0.014648
27.165	-0.00824	1.2625	-0.010223	-0.015717	0.015259	-0.03891	-0.62668	0.016174	-0.052185	0.056458	0.014191	0.001678	-0.058441	-0.060425	-0.8316	0.006256	-0.027924	-0.51697	-0.41779	0.47089	0.26138	0.015106	0.058746	0.19974	0.031128	0.033112	-0.19959	-0.013123	-0.20676	-0.29465	-0.001221	-0.010376
